<svg
  xmlns="http://www.w3.org/2000/svg"
  xmlns:xlink="http://www.w3.org/1999/xlink"
  width="64px"
  height="121px"
  viewBox="0 0 2864.1 1517.07"
  version="1.1"
>
  <defs>
    <clipPath id="clip1">
      <path d="M 1521 918 L 1671 918 L 1671 1517.070313 L 1521 1517.070313 Z M 1521 918 " />
    </clipPath>
    <clipPath id="clip2">
      <path d="M 2801 1445 L 2864.101563 1445 L 2864.101563 1508 L 2801 1508 Z M 2801 1445 " />
    </clipPath>
  </defs>
  <g id="surface1">
    <path
      style="stroke:none;fill-rule:nonzero;fill:rgb(45.098877%,48.599243%,52.198792%);fill-opacity:1;"
      d="M 2772.800781 906.46875 L 2842.421875 779.671875 L 1571.480469 82.339844 L 1421.210938 0 L 1270.839844 82.339844 L 0 779.769531 L 69.613281 906.566406 L 319.925781 769.128906 L 319.925781 1494.5 L 461.140625 1494.5 L 461.140625 1424.890625 L 463.226563 1424.890625 C 495.648438 1484.550781 561.582031 1508.519531 641.042969 1508.519531 C 748.742188 1508.519531 864.898438 1421.710938 864.898438 1222.910156 C 864.898438 1024.109375 748.742188 938.785156 641.4375 938.785156 C 574.511719 938.785156 507.582031 963.847656 470.886719 1019.339844 L 468.398438 1019.339844 L 468.398438 687.679688 L 1421.210938 164.980469 L 2371.828125 686.6875 L 2371.828125 1019.339844 L 2369.738281 1019.339844 C 2336.21875 966.03125 2273.480469 938.785156 2209.730469 938.785156 C 2050.609375 938.785156 1970.160156 1073.738281 1970.160156 1219.128906 C 1970.160156 1368.300781 2049.71875 1508.921875 2212.808594 1508.921875 C 2281.828125 1508.921875 2342.089844 1483.859375 2377 1425.289063 L 2379.089844 1425.289063 L 2379.089844 1494.5 L 2521 1494.5 L 2521 768.53125 Z M 589.726563 1050.660156 C 677.640625 1050.660156 716.324219 1133.308594 716.324219 1224.300781 C 716.324219 1315.300781 677.640625 1396.941406 589.726563 1396.941406 C 501.8125 1396.941406 463.128906 1314.300781 463.128906 1224.300781 C 463.128906 1134.300781 502.210938 1050.660156 589.726563 1050.660156 Z M 2249.808594 1396.941406 C 2157.71875 1396.941406 2119.03125 1308.039063 2119.03125 1223.308594 C 2119.03125 1134.398438 2152.550781 1050.660156 2249.808594 1050.660156 C 2347.070313 1050.660156 2377.398438 1134.398438 2377.398438 1222.210938 C 2377.398438 1310.03125 2348.160156 1396.941406 2249.808594 1396.941406 "
    />
    <path
      style="stroke:none;fill-rule:nonzero;fill:rgb(45.098877%,48.599243%,52.198792%);fill-opacity:1;"
      d="M 1291.929688 1236.929688 C 1291.929688 1346.320313 1257.421875 1391.769531 1176.859375 1391.769531 C 1107.851563 1391.769531 1081.699219 1347.820313 1081.699219 1258.910156 L 1081.699219 953.40625 L 933.21875 953.40625 L 933.21875 1285.660156 C 933.21875 1419.519531 972.996094 1508.421875 1130.921875 1508.421875 C 1139.109375 1508.53125 1147.269531 1508.109375 1155.410156 1507.171875 C 1163.550781 1506.238281 1171.589844 1504.78125 1179.550781 1502.820313 C 1187.5 1500.859375 1195.300781 1498.398438 1202.941406 1495.449219 C 1210.570313 1492.488281 1218 1489.058594 1225.199219 1485.160156 C 1232.398438 1481.261719 1239.328125 1476.921875 1245.980469 1472.140625 C 1252.628906 1467.351563 1258.949219 1462.171875 1264.941406 1456.582031 C 1270.921875 1450.988281 1276.539063 1445.050781 1281.769531 1438.738281 C 1287 1432.441406 1291.808594 1425.839844 1296.199219 1418.921875 L 1299.390625 1418.921875 L 1299.390625 1494.5 L 1440.601563 1494.5 L 1440.601563 953.40625 L 1291.929688 953.40625 L 1291.929688 1236.929688 "
    />
    <path
      style="stroke:none;fill-rule:nonzero;fill:rgb(45.098877%,48.599243%,52.198792%);fill-opacity:1;"
      d="M 1753.660156 691.558594 L 1902.238281 691.558594 L 1902.238281 1494.101563 L 1753.660156 1494.101563 L 1753.660156 691.558594 "
    />
    <g clip-path="url(#clip1)" clip-rule="nonzero">
      <path
        style="stroke:none;fill-rule:nonzero;fill:rgb(0%,67.498779%,72.898865%);fill-opacity:1;"
        d="M 1521.550781 1435.628906 L 1670.03125 1517.070313 L 1670.03125 918.699219 L 1521.550781 1000.25 L 1521.550781 1435.628906 "
      />
    </g>
    <path
      style="stroke:none;fill-rule:nonzero;fill:rgb(45.098877%,48.599243%,52.198792%);fill-opacity:1;"
      d="M 2715.21875 1366.011719 L 2715.21875 1405 C 2717.128906 1405 2719.011719 1405.199219 2720.878906 1405.589844 C 2722.738281 1405.96875 2724.539063 1406.558594 2726.289063 1407.320313 C 2728.039063 1408.078125 2729.679688 1409.03125 2731.230469 1410.128906 C 2732.78125 1411.238281 2734.199219 1412.488281 2735.5 1413.898438 C 2736.78125 1415.300781 2737.921875 1416.808594 2738.890625 1418.449219 C 2739.859375 1420.089844 2740.660156 1421.808594 2741.28125 1423.609375 C 2741.890625 1425.410156 2742.320313 1427.261719 2742.558594 1429.148438 C 2742.789063 1431.039063 2742.828125 1432.929688 2742.671875 1434.832031 C 2742.671875 1459.800781 2720.589844 1469.339844 2698.519531 1469.339844 C 2676.441406 1469.339844 2654.460938 1459.398438 2654.460938 1434.832031 C 2654.261719 1433.101563 2654.21875 1431.378906 2654.351563 1429.640625 C 2654.480469 1427.910156 2654.78125 1426.199219 2655.238281 1424.519531 C 2655.699219 1422.851563 2656.320313 1421.230469 2657.089844 1419.671875 C 2657.871094 1418.121094 2658.78125 1416.648438 2659.839844 1415.269531 C 2660.898438 1413.890625 2662.078125 1412.621094 2663.378906 1411.46875 C 2664.679688 1410.320313 2666.078125 1409.300781 2667.578125 1408.421875 C 2669.078125 1407.539063 2670.648438 1406.820313 2672.289063 1406.238281 C 2673.941406 1405.660156 2675.609375 1405.25 2677.328125 1405 L 2677.328125 1366.308594 C 2641.53125 1367.308594 2621.148438 1402.121094 2621.148438 1434.140625 C 2621.148438 1479.089844 2655.460938 1508.230469 2698.519531 1508.230469 C 2741.578125 1508.230469 2775.890625 1479.089844 2775.890625 1434.140625 C 2775.988281 1396.148438 2753.511719 1368.101563 2715.21875 1366.011719 "
    />
    <path
      style="stroke:none;fill-rule:nonzero;fill:rgb(45.098877%,48.599243%,52.198792%);fill-opacity:1;"
      d="M 2698.621094 1199.339844 C 2655.550781 1199.339844 2621.25 1225.789063 2621.25 1272.53125 C 2621.25 1319.269531 2655.550781 1345.71875 2698.621094 1345.71875 C 2741.679688 1345.71875 2775.988281 1319.269531 2775.988281 1272.53125 C 2775.988281 1225.789063 2741.679688 1199.339844 2698.621094 1199.339844 Z M 2698.621094 1307.140625 C 2676.539063 1307.140625 2654.558594 1297.199219 2654.558594 1272.640625 C 2654.558594 1248.070313 2676.628906 1238.128906 2698.621094 1238.128906 C 2720.589844 1238.128906 2742.769531 1248.070313 2742.769531 1272.640625 C 2742.769531 1297.199219 2720.589844 1307.039063 2698.621094 1307.039063 L 2698.621094 1307.140625 "
    />
    <path
      style="stroke:none;fill-rule:nonzero;fill:rgb(45.098877%,48.599243%,52.198792%);fill-opacity:1;"
      d="M 2772.800781 1046.789063 L 2772.800781 1010.289063 L 2624.328125 1010.289063 L 2624.328125 1067.371094 L 2723.378906 1092.929688 L 2723.378906 1093.328125 L 2624.328125 1118.988281 L 2624.328125 1175.96875 L 2772.800781 1175.96875 L 2772.800781 1139.570313 L 2660.128906 1139.570313 L 2660.128906 1139.078125 L 2772.800781 1107.949219 L 2772.800781 1078.410156 L 2660.128906 1047.179688 L 2660.128906 1046.789063 L 2772.800781 1046.789063 "
    />
    <g clip-path="url(#clip2)" clip-rule="nonzero">
      <path
        style="stroke:none;fill-rule:nonzero;fill:rgb(45.098877%,48.599243%,52.198792%);fill-opacity:1;"
        d="M 2832.769531 1445.371094 C 2830.71875 1445.378906 2828.691406 1445.582031 2826.679688 1446 C 2824.671875 1446.398438 2822.71875 1447 2820.828125 1447.789063 C 2818.941406 1448.582031 2817.140625 1449.550781 2815.441406 1450.691406 C 2813.738281 1451.839844 2812.171875 1453.140625 2810.71875 1454.589844 C 2809.28125 1456.050781 2807.988281 1457.628906 2806.859375 1459.332031 C 2805.71875 1461.039063 2804.761719 1462.839844 2803.980469 1464.738281 C 2803.199219 1466.640625 2802.621094 1468.589844 2802.230469 1470.601563 C 2801.828125 1472.621094 2801.640625 1474.648438 2801.640625 1476.699219 C 2801.648438 1478.75 2801.859375 1480.78125 2802.261719 1482.789063 C 2802.671875 1484.800781 2803.269531 1486.75 2804.058594 1488.640625 C 2804.851563 1490.53125 2805.820313 1492.332031 2806.960938 1494.03125 C 2808.109375 1495.730469 2809.410156 1497.308594 2810.859375 1498.75 C 2812.308594 1500.199219 2813.898438 1501.488281 2815.609375 1502.621094 C 2817.320313 1503.75 2819.121094 1504.710938 2821.011719 1505.488281 C 2822.910156 1506.269531 2824.859375 1506.851563 2826.878906 1507.25 C 2828.890625 1507.640625 2830.921875 1507.839844 2832.96875 1507.820313 C 2835.019531 1507.820313 2837.050781 1507.609375 2839.058594 1507.210938 C 2841.070313 1506.800781 2843.019531 1506.210938 2844.910156 1505.410156 C 2846.808594 1504.621094 2848.601563 1503.648438 2850.300781 1502.511719 C 2852.011719 1501.359375 2853.570313 1500.058594 2855.019531 1498.609375 C 2856.46875 1497.160156 2857.761719 1495.582031 2858.890625 1493.871094 C 2860.03125 1492.160156 2860.980469 1490.359375 2861.761719 1488.460938 C 2862.539063 1486.558594 2863.121094 1484.609375 2863.519531 1482.589844 C 2863.910156 1480.582031 2864.101563 1478.550781 2864.101563 1476.5 C 2864.101563 1474.449219 2863.890625 1472.421875 2863.5 1470.398438 C 2863.101563 1468.390625 2862.5 1466.441406 2861.710938 1464.539063 C 2860.921875 1462.648438 2859.949219 1460.851563 2858.808594 1459.148438 C 2857.671875 1457.441406 2856.371094 1455.871094 2854.910156 1454.421875 C 2853.460938 1452.980469 2851.871094 1451.679688 2850.160156 1450.550781 C 2848.449219 1449.421875 2846.648438 1448.460938 2844.738281 1447.691406 C 2842.839844 1446.910156 2840.878906 1446.332031 2838.871094 1445.941406 C 2836.859375 1445.550781 2834.820313 1445.359375 2832.769531 1445.371094 Z M 2832.769531 1503.25 C 2831.011719 1503.320313 2829.261719 1503.210938 2827.53125 1502.929688 C 2825.789063 1502.648438 2824.089844 1502.199219 2822.441406 1501.582031 C 2820.789063 1500.96875 2819.21875 1500.199219 2817.71875 1499.269531 C 2816.230469 1498.332031 2814.839844 1497.269531 2813.550781 1496.070313 C 2812.269531 1494.859375 2811.109375 1493.539063 2810.089844 1492.109375 C 2809.070313 1490.679688 2808.191406 1489.160156 2807.46875 1487.550781 C 2806.75 1485.949219 2806.191406 1484.289063 2805.800781 1482.570313 C 2805.410156 1480.851563 2805.179688 1479.109375 2805.128906 1477.359375 C 2805.089844 1475.601563 2805.210938 1473.851563 2805.511719 1472.109375 C 2805.808594 1470.378906 2806.269531 1468.691406 2806.910156 1467.039063 C 2807.539063 1465.398438 2808.320313 1463.832031 2809.269531 1462.351563 C 2810.210938 1460.859375 2811.289063 1459.480469 2812.511719 1458.210938 C 2813.730469 1456.929688 2815.058594 1455.789063 2816.5 1454.78125 C 2817.941406 1453.769531 2819.46875 1452.910156 2821.078125 1452.210938 C 2822.691406 1451.5 2824.359375 1450.960938 2826.078125 1450.582031 C 2827.800781 1450.210938 2829.539063 1450 2831.300781 1449.96875 C 2833.058594 1449.941406 2834.808594 1450.082031 2836.539063 1450.390625 C 2838.269531 1450.710938 2839.960938 1451.191406 2841.601563 1451.839844 C 2843.230469 1452.488281 2844.789063 1453.289063 2846.269531 1454.25 C 2847.75 1455.210938 2849.109375 1456.300781 2850.378906 1457.53125 C 2851.640625 1458.761719 2852.761719 1460.101563 2853.761719 1461.550781 C 2854.761719 1463.011719 2855.601563 1464.539063 2856.289063 1466.160156 C 2856.980469 1467.78125 2857.511719 1469.449219 2857.871094 1471.179688 C 2858.230469 1472.898438 2858.421875 1474.640625 2858.429688 1476.398438 C 2858.488281 1478.128906 2858.390625 1479.851563 2858.109375 1481.558594 C 2857.828125 1483.269531 2857.390625 1484.941406 2856.769531 1486.550781 C 2856.160156 1488.179688 2855.390625 1489.71875 2854.46875 1491.179688 C 2853.539063 1492.648438 2852.480469 1494.011719 2851.28125 1495.261719 C 2850.089844 1496.511719 2848.78125 1497.628906 2847.359375 1498.621094 C 2845.929688 1499.609375 2844.429688 1500.449219 2842.839844 1501.128906 C 2841.25 1501.820313 2839.609375 1502.351563 2837.910156 1502.699219 C 2836.21875 1503.058594 2834.5 1503.238281 2832.769531 1503.25 "
      />
    </g>
    <path
      style="stroke:none;fill-rule:nonzero;fill:rgb(45.098877%,48.599243%,52.198792%);fill-opacity:1;"
      d="M 2847.488281 1468.738281 C 2847.519531 1467.949219 2847.46875 1467.160156 2847.308594 1466.378906 C 2847.160156 1465.601563 2846.910156 1464.851563 2846.578125 1464.128906 C 2846.238281 1463.410156 2845.820313 1462.738281 2845.328125 1462.121094 C 2844.839844 1461.488281 2844.28125 1460.941406 2843.648438 1460.460938 C 2843.019531 1459.96875 2842.339844 1459.558594 2841.621094 1459.230469 C 2840.890625 1458.910156 2840.140625 1458.679688 2839.351563 1458.53125 C 2838.570313 1458.390625 2837.789063 1458.339844 2836.988281 1458.378906 C 2836.199219 1458.429688 2835.421875 1458.570313 2834.660156 1458.800781 L 2820.539063 1458.800781 L 2820.539063 1494.5 L 2826.210938 1494.5 L 2826.210938 1478.789063 L 2832.171875 1478.789063 L 2842.121094 1494.5 L 2848.179688 1494.5 L 2837.738281 1478.390625 C 2839.019531 1478.371094 2840.25 1478.109375 2841.421875 1477.609375 C 2842.589844 1477.109375 2843.640625 1476.410156 2844.550781 1475.519531 C 2845.449219 1474.621094 2846.160156 1473.589844 2846.671875 1472.410156 C 2847.179688 1471.238281 2847.449219 1470.019531 2847.488281 1468.738281 Z M 2832.171875 1474.511719 L 2826.210938 1474.511719 L 2826.210938 1462.878906 L 2833.761719 1462.878906 C 2837.640625 1462.878906 2841.820313 1463.671875 2841.820313 1468.441406 C 2841.820313 1473.21875 2837.148438 1474.609375 2832.171875 1474.609375 L 2832.171875 1474.511719 "
    />
  </g>
</svg>
